PathFileType	4	(X/Y/Z)	/Users/itak/Documents/Research/Walk-IL/dataset/trc/00196_00008.trc
DataRate	CameraRate	NumFrames	NumMarkers	Units	OrigDataRate	OrigDataStartFrame	OrigNumFrames
100.000000	100.000000	4	53	mm	100.000000	0	826
Frame#	Time	RPSI			LPSI			L3			STRN			T10			C7			CLAV			RBAK			LBAK			LSHO			LUPA			LAEL			LAOL			LWTS			LWPS			LFRA			LIFD			LHPS			LHTS			RSHO			RUPA			RAEL			RAOL			RWTS			RWPS			RFRA			RIFD			RHTS			RHPS			RBHD			LFHD			RFHD			LBHD			LHIP			RHIP			RASI			LASI			LKNE			LTHI			LANK			LTIP			LTOE			LMT1			LMT5			LHEE			RKNE			RTHI			RANK			RTIP			RTOE			RMT1			RMT5			RHEE			
		X1	Y1	Z1	X2	Y2	Z2	X3	Y3	Z3	X4	Y4	Z4	X5	Y5	Z5	X6	Y6	Z6	X7	Y7	Z7	X8	Y8	Z8	X9	Y9	Z9	X10	Y10	Z10	X11	Y11	Z11	X12	Y12	Z12	X13	Y13	Z13	X14	Y14	Z14	X15	Y15	Z15	X16	Y16	Z16	X17	Y17	Z17	X18	Y18	Z18	X19	Y19	Z19	X20	Y20	Z20	X21	Y21	Z21	X22	Y22	Z22	X23	Y23	Z23	X24	Y24	Z24	X25	Y25	Z25	X26	Y26	Z26	X27	Y27	Z27	X28	Y28	Z28	X29	Y29	Z29	X30	Y30	Z30	X31	Y31	Z31	X32	Y32	Z32	X33	Y33	Z33	X34	Y34	Z34	X35	Y35	Z35	X36	Y36	Z36	X37	Y37	Z37	X38	Y38	Z38	X39	Y39	Z39	X40	Y40	Z40	X41	Y41	Z41	X42	Y42	Z42	X43	Y43	Z43	X44	Y44	Z44	X45	Y45	Z45	X46	Y46	Z46	X47	Y47	Z47	X48	Y48	Z48	X49	Y49	Z49	X50	Y50	Z50	X51	Y51	Z51	X52	Y52	Z52	X53	Y53	Z53	

1	0	369.3843078613281	1058.128784179688	989.6817626953125	336.1613159179688	1056.256103515625	1108.864868164062	353.4107971191406	1094.970825195312	1046.9716796875	96.13037872314453	1302.9814453125	991.7510986328125	383.0194396972656	1254.940673828125	1065.884643554688	309.4583129882812	1521.554565429688	1069.595458984375	120.3010330200195	1414.064819335938	1010.623840332031	408.4094848632812	1352.648193359375	975.53857421875	291.6492614746094	1493.385009765625	1166.796630859375	199.6445770263672	1475.876098632812	1221.464965820312	215.8656463623047	1346.850463867188	1302.74267578125	188.8473510742188	1134.969848632812	1333.918701171875	245.4530944824219	1102.68994140625	1273.227905273438	-20.51086044311523	1022.403442382812	1243.122436523438	20.2213306427002	949.1327514648438	1285.036376953125	115.061897277832	1049.908325195312	1326.55322265625	-31.30002593994141	904.4423828125	1099.153930664062	-15.11467170715332	901.440673828125	1237.996459960938	-64.36075592041016	951.0079956054688	1207.73095703125	294.2517395019531	1506.40673828125	877.7247314453125	331.8114929199219	1443.431274414062	812.980712890625	346.6849975585938	1155.122924804688	726.4285278320312	325.9450378417969	1142.497802734375	822.7174072265625	93.58230590820312	1075.191772460938	691.1329345703125	134.7772064208984	996.0247192382812	690.7863159179688	284.5326538085938	1101.364501953125	701.306396484375	-1.824905633926392	992.2131958007812	826.824462890625	5.335849761962891	1017.976867675781	725.8239135742188	58.31482315063477	956.8618774414062	726.0770874023438	276.2608947753906	1674.267578125	1059.5234375	78.50769805908203	1731.898315429688	988.850830078125	191.1504364013672	1743.691650390625	924.2726440429688	162.4223327636719	1667.4052734375	1136.435180664062	205.1990661621094	994.436767578125	1194.26318359375	249.3702392578125	1020.440490722656	828.4151000976562	159.4077758789062	1045.317993164062	860.9268188476562	97.44650268554688	1030.161743164062	1111.814697265625	212.2416076660156	500.0028381347656	1159.196533203125	197.1723327636719	643.2088623046875	1185.143432617188	322.4230651855469	44.86668395996094	1187.066528320312	261.371826171875	279.3752136230469	1184.623901367188	106.3339920043945	43.67362594604492	1132.5859375	162.6729736328125	46.12679290771484	1091.834228515625	210.4348602294922	36.31989288330078	1212.619750976562	381.1757202148438	44.27228927612305	1124.560180664062	246.9754028320312	519.4598999023438	828.5448608398438	207.3594055175781	790.584228515625	798.2672729492188	356.9131164550781	43.1481819152832	830.7966918945312	239.9941558837891	399.50341796875	839.0099487304688	132.8160247802734	42.66011047363281	809.6403198242188	176.8139953613281	40.40705490112305	867.2472534179688	256.25	41.53261184692383	769.7967529296875	392.6035461425781	37.73714065551758	907.49560546875	
2	0.01	369.5302124023438	1058.170532226562	989.7007446289062	336.2845764160156	1056.366088867188	1108.886474609375	353.5775756835938	1095.08251953125	1047.01708984375	97.92701721191406	1300.867431640625	991.0291748046875	383.0211181640625	1255.189697265625	1065.976928710938	309.1390686035156	1521.664794921875	1069.661376953125	118.1147003173828	1416.037353515625	1010.72119140625	408.2869873046875	1352.934204101562	975.60009765625	291.3858337402344	1493.442138671875	1166.864013671875	198.8665008544922	1475.558349609375	1221.119140625	215.0479278564453	1346.70751953125	1302.547119140625	187.2412109375	1134.712768554688	1333.0791015625	244.6584320068359	1102.533203125	1272.879028320312	-21.38960075378418	1023.860168457031	1238.954223632812	18.20443725585938	950.16064453125	1281.319091796875	113.167610168457	1050.105712890625	1324.53662109375	-28.00979995727539	906.924072265625	1094.31396484375	-16.12108993530273	902.7261962890625	1233.406860351562	-63.07146453857422	950.1776123046875	1201.7138671875	293.921630859375	1506.533203125	877.752197265625	331.4623718261719	1443.463745117188	812.9944458007812	345.6790161132812	1154.9775390625	726.59912109375	326.0064697265625	1142.578002929688	823.0614013671875	91.92021179199219	1075.749267578125	694.537841796875	133.0872192382812	996.563720703125	693.4332275390625	283.1778259277344	1101.366455078125	702.2206420898438	2.763335227966309	992.9205322265625	833.4478149414062	4.092228889465332	1018.914978027344	731.0950317382812	57.15400314331055	957.3980102539062	730.1558837890625	275.8587951660156	1674.27197265625	1059.629760742188	78.23550415039062	1731.898681640625	988.7491455078125	190.9629669189453	1743.708251953125	924.3158569335938	162.0778656005859	1667.360107421875	1136.416625976562	205.3279266357422	994.49462890625	1194.229614257812	249.7863616943359	1020.447082519531	828.381103515625	159.7529296875	1045.379638671875	860.9574584960938	95.35333251953125	1032.90771484375	1112.39501953125	211.9027404785156	499.9664001464844	1159.051879882812	196.9559020996094	643.1931762695312	1185.138427734375	322.3421325683594	44.82775115966797	1187.053100585938	261.2093811035156	279.30859375	1184.561767578125	106.2723388671875	43.65078735351562	1132.532592773438	162.6471862792969	46.07453155517578	1091.81103515625	210.446044921875	36.49300765991211	1212.7783203125	381.2536315917969	44.31436157226562	1124.604125976562	246.2111206054688	519.3865966796875	828.421142578125	207.289794921875	790.64599609375	798.2244873046875	356.8908996582031	43.13998413085938	830.8338623046875	239.3518676757812	399.4389343261719	838.8092651367188	132.7653961181641	42.68691253662109	809.6195068359375	176.8029937744141	40.36213684082031	867.2424926757812	256.2292785644531	41.5157585144043	769.8074340820312	392.5341186523438	37.71353149414062	907.5092163085938	
3	0.02	369.6665649414062	1058.17578125	989.7249145507812	336.4210510253906	1056.438598632812	1108.889526367188	353.7313232421875	1095.17138671875	1047.042846679688	98.45396423339844	1300.173828125	990.7975463867188	383.0226440429688	1255.410888671875	1066.056030273438	308.8211975097656	1521.781494140625	1069.706176757812	118.0141220092773	1415.801879882812	1010.552673339844	408.168701171875	1353.202514648438	975.6338500976562	291.0928955078125	1493.510986328125	1166.93115234375	198.3321228027344	1475.42724609375	1220.964721679688	214.3426666259766	1346.549926757812	1302.32763671875	185.7866363525391	1134.424682617188	1332.214599609375	243.8980255126953	1102.327392578125	1272.47021484375	-22.15065383911133	1025.204467773438	1234.832397460938	16.32913208007812	951.1728515625	1277.600341796875	111.595817565918	1050.286987304688	1322.421142578125	-25.30484580993652	909.305419921875	1089.713256835938	-17.07787895202637	903.968017578125	1228.93798828125	-62.87103652954102	950.9133911132812	1196.243774414062	293.6324462890625	1506.6513671875	877.7596435546875	331.124267578125	1443.49365234375	812.9879760742188	344.819580078125	1154.824951171875	726.8706665039062	326.1488342285156	1142.6435546875	823.559326171875	90.52679443359375	1076.205932617188	698.2684936523438	131.4328460693359	997.0176391601562	696.1356811523438	281.949462890625	1101.300170898438	703.20751953125	4.116930484771729	993.9581909179688	838.4696044921875	3.092938423156738	1019.572509765625	736.2831420898438	56.18802261352539	957.8550415039062	734.202392578125	275.4415283203125	1674.28125	1059.718139648438	77.91121673583984	1731.887939453125	988.65771484375	190.7360076904297	1743.71630859375	924.3540649414062	161.6440582275391	1667.307250976562	1136.408447265625	205.4263305664062	994.547119140625	1194.187133789062	250.2138061523438	1020.440673828125	828.3613891601562	160.2366027832031	1045.464599609375	860.8308715820312	94.73332214355469	1033.757568359375	1112.56298828125	211.4670867919922	499.936279296875	1158.9208984375	196.6675262451172	643.1951293945312	1185.052001953125	322.3028869628906	44.83269119262695	1187.08154296875	260.9550476074219	279.2734375	1184.494873046875	106.2328567504883	43.66943359375	1132.524047851562	162.6349792480469	46.06131744384766	1091.800903320312	210.4432220458984	36.52051544189453	1212.8125	381.4886474609375	44.48109817504883	1124.725219726562	245.3814239501953	519.2586059570312	828.2872314453125	207.1673431396484	790.7172241210938	798.160400390625	356.8961181640625	43.17290878295898	830.8579711914062	238.5463562011719	399.2908630371094	838.6185302734375	132.8112182617188	42.66635513305664	809.639892578125	176.8119964599609	40.343505859375	867.271240234375	256.1755676269531	41.53491592407227	769.8446655273438	392.5519104003906	37.74826812744141	907.5328369140625	
4	0.03	369.8001403808594	1058.145263671875	989.7565307617188	336.5584716796875	1056.468994140625	1108.880615234375	353.8699340820312	1095.23193359375	1047.058959960938	98.3548583984375	1300.145874023438	990.7830200195312	383.0142211914062	1255.603515625	1066.119873046875	308.499267578125	1521.90185546875	1069.733764648438	118.7599258422852	1414.598510742188	1010.181701660156	408.0618896484375	1353.447265625	975.6484375	290.769287109375	1493.5869140625	1166.996215820312	197.9691619873047	1475.435302734375	1220.934448242188	213.7348937988281	1346.381591796875	1302.0869140625	184.4891510009766	1134.112670898438	1331.327270507812	243.1969451904297	1102.085083007812	1272.002685546875	-22.78336906433105	1026.480834960938	1230.82861328125	14.72013854980469	952.1278686523438	1273.857421875	110.2600173950195	1050.440551757812	1320.261840820312	-22.96461868286133	911.740234375	1085.3125	-17.98858451843262	905.1817016601562	1224.578125	-63.1743278503418	952.4923095703125	1191.135375976562	293.3848266601562	1506.7548828125	877.7537841796875	330.798095703125	1443.517211914062	812.9649658203125	344.1089477539062	1154.65625	727.2274169921875	326.2931518554688	1142.726440429688	824.1255493164062	89.33980560302734	1076.5634765625	702.1359252929688	129.8262634277344	997.3847045898438	698.8816528320312	280.8422241210938	1101.1630859375	704.2546997070312	4.576774120330811	995.2808837890625	842.8212280273438	2.259474277496338	1019.942321777344	741.3607788085938	55.39227294921875	958.234130859375	738.2130126953125	275.0208435058594	1674.293701171875	1059.784912109375	77.53704833984375	1731.862915039062	988.5782470703125	190.4704895019531	1743.715454101562	924.3866577148438	161.1838684082031	1667.253662109375	1136.400268554688	205.5091400146484	994.5906982421875	1194.140625	250.5849304199219	1020.408630371094	828.3671264648438	160.7472839355469	1045.510009765625	860.7141723632812	94.91030883789062	1033.665893554688	1112.527221679688	210.9855041503906	499.9201965332031	1158.77587890625	196.2688903808594	643.2072143554688	1184.906494140625	322.2794494628906	44.87574005126953	1187.074951171875	260.6428833007812	279.2464294433594	1184.426635742188	106.2105102539062	43.66454696655273	1132.505615234375	162.6398010253906	46.06511306762695	1091.802001953125	210.4438171386719	36.51179885864258	1212.801025390625	381.4835510253906	44.54114151000977	1124.709594726562	244.4566192626953	519.1368408203125	828.1531372070312	207.02685546875	790.7626342773438	798.1022338867188	356.9059448242188	43.21897125244141	830.8707275390625	237.6432800292969	399.0292358398438	838.4263916015625	132.7887725830078	42.65459823608398	809.6498413085938	176.8147125244141	40.29560852050781	867.3070678710938	256.1624450683594	41.54085159301758	769.8695678710938	392.5743408203125	37.75115585327148	907.535400390625	
